<?xml version="1.0" encoding="utf-8"?>
<?xml-stylesheet type="text/xsl" href="rss1.xsl"?>
<rss version="2.0" xmlns:atom="http://www.w3.org/2005/Atom" xmlns:content="http://purl.org/rss/1.0/modules/content/" xmlns:dc="http://purl.org/dc/elements/1.1/" xmlns:media="http://search.yahoo.com/mrss/">
<channel>
 <title>Getty</title>
 <link>http://www.gettyimg.com/</link>
 <atom:link href="http://www.gettyimg.com/" rel="self" type="application/rss+xml" />

 
                <item>
                <title><![CDATA[【HD Live Performances】FEED - Demi Lovato &amp; Nick Jonas - Tidal X - Future Now (2016) 1080i HDTV Backhaul MPA2.0 H.264-ALANiS]]></title>
                <link><![CDATA[https://sharemania.us/threads/demi-lovato-nick-jonas-tidal-x-future-now-2016-1080i-hdtv-backhaul-mpa2-0-h-264-alanis.235895/]]></link>
                <description><![CDATA[<article>
<blockquote class="messageText SelectQuoteContainer ugc baseHtml">
<div style="text-align: center"><b><span style="color: #ff0000">Demi Lovato &amp; Nick Jonas - Tidal X - Future Now (2016) 1080i HDTV Backhaul MPA2.0 H.264-ALANiS</span></b><br>
<br>
<img src="https://images2.imgbox.com/1a/9d/uhQv3P44_o.jpg" class="bbCodeImage LbImage" alt="[​IMG]" data-url="https://images2.imgbox.com/1a/9d/uhQv3P44_o.jpg" style=""> <br>
<div style="text-align: center">​</div>
<div class="ToggleTriggerAnchor bbCodeSpoilerContainer">
<button type="button" class="button bbCodeSpoilerButton ToggleTrigger Tooltip JsOnly" data-target="> .SpoilerTarget"><span>Spoiler: <span class="SpoilerTitle">MediaInfo</span></span></button>
<div class="SpoilerTarget bbCodeSpoilerText">Format : Matroska<br>
Format version : Version 4<br>
File size : 5.04 GiB<br>
Duration : 44 min 8 s<br>
Overall bit rate mode : Variable<br>
Overall bit rate : 16.3 Mb/s<br>
Encoded date : UTC 2020-01-12 23:20:58<br>
Writing application : mkvmerge v41.0.0 ('Smarra') 64-bit<br>
Writing library : libebml v1.3.9 + libmatroska v1.5.2<br>
<br>
Video<br>
ID : 1<br>
Format : AVC<br>
Format/Info : Advanced Video Codec<br>
Format profile : High@L4.1<br>
Format settings : CABAC / 4 Ref Frames<br>
Format settings, CABAC : Yes<br>
Format settings, Reference : 4 frames<br>
Codec ID : V_MPEG4/ISO/AVC<br>
Duration : 44 min 8 s<br>
Bit rate mode : Variable<br>
Bit rate : 15.9 Mb/s<br>
Maximum bit rate : 16.4 Mb/s<br>
Width : 1 920 pixels<br>
Height : 1 080 pixels<br>
Display aspect ratio : 16:9<br>
Frame rate mode : Variable<br>
Frame rate : 59.940 (59940/1000) FPS<br>
Original frame rate : 29.970 (30000/1001) FPS<br>
Color space : YUV<br>
Chroma subsampling : 4:2:0<br>
Bit depth : 8 bits<br>
Scan type : MBAFF<br>
Scan type, store method : Separated fields<br>
Scan order : Top Field First<br>
Bits/(Pixel*Frame) : 0.128<br>
Stream size : 4.92 GiB (98%)<br>
Default : Yes<br>
Forced : No<br>
Color range : Limited<br>
Color primaries : BT.709<br>
Transfer characteristics : BT.709<br>
Matrix coefficients : BT.709<br>
<br>
Audio<br>
ID : 2<br>
Format : MPEG Audio<br>
Format version : Version 1<br>
Format profile : Layer 2<br>
Format settings : Intensity Stereo + MS Stereo<br>
Codec ID : A_MPEG/L2<br>
Codec ID/Hint : MP2<br>
Duration : 44 min 8 s<br>
Bit rate mode : Constant<br>
Bit rate : 384 kb/s<br>
Channel(s) : 2 channels<br>
Sampling rate : 48.0 kHz<br>
Frame rate : 41.667 FPS (1152 SPF)<br>
Compression mode : Lossy<br>
Stream size : 121 MiB (2%)<br>
Language : English<br>
Default : Yes<br>
Forced : No</div>
</div><div style="text-align: center"><br>
<div class="bbCodeBlock bbCodeVfcHH HiddenContent">
<div class="attribution type">Hidden Content:</div>
<blockquote>You must either reply or click 'Like' to see the hidden information contained here.</blockquote>
</div></div></div>
<div class="messageTextEndMarker">&nbsp;</div>
</blockquote>
</article>]]></description>
                <author><![CDATA[melodie]]></author>
                </item>

                </channel></rss>